<?xml version="1.0" encoding="UTF-8"?>
<svg width="94px" height="94px" viewBox="0 0 94 94" version="1.1" xmlns="http://www.w3.org/2000/svg" xmlns:xlink="http://www.w3.org/1999/xlink">
    <title>-mockplus-</title>
    <g id="页面-1" stroke="none" stroke-width="1" fill="none" fill-rule="evenodd">
        <g id="拍摄后出现重拍+选背景icon" transform="translate(-1772.000000, -936.000000)">
            <g id="全部图库" transform="translate(1772.000000, 936.000000)">
                <rect id="矩形备份-5" fill-opacity="0.99" fill="#FFFFFF" opacity="0.897284226" x="0" y="0" width="94" height="94" rx="47"></rect>
                <g id="返回备份-3" transform="translate(47.000000, 83.000000) rotate(90.000000) translate(-47.000000, -83.000000) translate(41.000000, 77.000000)">
                    <rect id="矩形" fill="#D8D8D8" opacity="0" x="0" y="0" width="12" height="12"></rect>
                    <path d="M8.29303499,12 C8.11200268,12 7.93094503,11.9299149 7.79282014,11.7892803 L2.60720634,6.50944256 C2.33093122,6.22863775 2.33093122,5.7725944 2.60720634,5.49129929 L7.79282016,0.210971329 C8.06909527,-0.0703237762 8.51651854,-0.0703237762 8.79279366,0.210971329 C9.06906878,0.491776144 9.06906878,0.947819496 8.79279366,1.2291146 L4.1073947,6.0001129 L8.79279365,10.7706467 C9.06906876,11.0519418 9.06906876,11.5074949 8.79279365,11.78879 C8.65512496,11.9299149 8.4740673,12 8.29303499,12 Z" id="路径" fill="#89BA43" fill-rule="nonzero"></path>
                </g>
                <text font-family="PingFangSC-Regular, PingFang SC" font-size="14" font-weight="normal" fill="#89BA43">
                    <tspan x="19" y="72">全部图库</tspan>
                </text>
                <g id="编组" transform="translate(29.000000, 16.000000)" fill="#89BA43" fill-rule="nonzero">
                    <path d="M28.30837,34 L3.72687225,34 C1.66519824,34 0,32.32 0,30.24 L0,7.76 C0,5.68 1.66519824,4 3.72687225,4 L28.30837,4 C30.3700441,4 32.0352423,5.68 32.0352423,7.76 L32.0352423,30.24 C32.0352423,32.32 30.3700441,34 28.30837,34 Z M3.72687225,6.4 C2.97356828,6.4 2.37885463,7 2.37885463,7.76 L2.37885463,30.24 C2.37885463,31 2.97356828,31.6 3.72687225,31.6 L28.30837,31.6 C29.061674,31.6 29.6563877,31 29.6563877,30.24 L29.6563877,7.76 C29.6563877,7 29.061674,6.4 28.30837,6.4 L3.72687225,6.4 Z" id="形状"></path>
                    <path d="M34.8105727,30 C34.1365639,30 33.6211454,29.48 33.6211454,28.8 L33.6211454,6.56 C33.6211454,4.28 31.7577093,2.4 29.4977974,2.4 L5.15418502,2.4 C4.48017621,2.4 3.96475771,1.88 3.96475771,1.2 C3.96475771,0.52 4.48017621,0 5.15418502,0 L29.4977974,0 C33.1057269,0 36,2.96 36,6.56 L36,28.8 C36,29.48 35.4845815,30 34.8105727,30 Z" id="路径"></path>
                    <path d="M1.18942731,29.6 C0.753303965,29.6 0.356828194,29.36 0.158590308,28.96 C-0.158590308,28.36 0.0792951542,27.64 0.634361233,27.32 L20.4581498,16.52 C20.9339207,16.24 21.5286344,16.36 21.8854626,16.76 L26.8017621,22.2 C27.2378855,22.68 27.1982379,23.44 26.722467,23.88 C26.246696,24.32 25.4933921,24.28 25.0572687,23.8 L20.7753304,19.08 L1.74449339,29.44 C1.58590308,29.56 1.3876652,29.6 1.18942731,29.6 L1.18942731,29.6 Z M9.31718062,18.4 C7.25550661,18.4 5.55066079,16.68 5.55066079,14.6 C5.55066079,12.52 7.25550661,10.8 9.31718062,10.8 C11.3788546,10.8 13.0837004,12.52 13.0837004,14.6 C13.0837004,16.68 11.3788546,18.4 9.31718062,18.4 Z M9.31718062,13.2 C8.56387665,13.2 7.92951542,13.84 7.92951542,14.6 C7.92951542,15.36 8.56387665,16 9.31718062,16 C10.0704846,16 10.7048458,15.36 10.7048458,14.6 C10.7048458,13.84 10.0704846,13.2 9.31718062,13.2 Z" id="形状"></path>
                </g>
            </g>
        </g>
    </g>
</svg>