<?xml version="1.0" encoding="UTF-8"?>
<svg width="42px" height="42px" viewBox="0 0 42 42" version="1.1" xmlns="http://www.w3.org/2000/svg" xmlns:xlink="http://www.w3.org/1999/xlink">
    <title>关闭</title>
    <g id="页面-1" stroke="none" stroke-width="1" fill="none" fill-rule="evenodd">
        <g id="全部图片" transform="translate(-1794.000000, -39.000000)" fill="#333333" fill-rule="nonzero">
            <g id="关闭" transform="translate(1794.000000, 39.000000)">
                <path d="M29.8840436,12.1158202 C29.3092507,11.5410337 28.3776896,11.5410337 27.8028967,12.1158202 L21.000236,18.9188764 L14.1971033,12.1158202 C13.6223104,11.5410337 12.6907493,11.5410337 12.1159564,12.1158202 C11.5411634,12.6906067 11.5411634,13.6221573 12.1159564,14.1969438 L18.9186171,20.9995281 L12.1159564,27.8025843 C11.5411634,28.3773708 11.5411634,29.3089213 12.1159564,29.8837079 C12.6907493,30.4584944 13.6223104,30.4584944 14.1971033,29.8837079 L21.000236,23.0811236 L27.8028967,29.8837079 C28.3776896,30.4584944 29.3092507,30.4584944 29.8840436,29.8837079 C30.4588366,29.3089213 30.4588366,28.3773708 29.8840436,27.8025843 L23.0813829,21 L29.8840436,14.1974157 C30.4588366,13.6221573 30.4588366,12.6906067 29.8840436,12.1158202 Z" id="路径"></path>
                <path d="M21.000236,0 C9.42037551,0 0,9.42026966 0,20.9995281 C0,32.5787865 9.42037551,42 21.000236,42 C32.5800964,42 42,32.5792584 42,20.9995281 C42,9.41979775 32.5796245,0 21.000236,0 Z M21.000236,39.0566966 C11.0437645,39.0566966 2.94333644,30.9563596 2.94333644,20.9995281 C2.94333644,11.0431685 11.0437645,2.94283146 21.000236,2.94283146 C30.9567074,2.94283146 39.0571355,11.0431685 39.0571355,20.9995281 C39.0566636,30.9563596 30.9567074,39.0566966 21.000236,39.0566966 Z" id="形状"></path>
            </g>
        </g>
    </g>
</svg>