<?xml version="1.0" encoding="UTF-8"?>
<svg width="94px" height="94px" viewBox="0 0 94 94" version="1.1" xmlns="http://www.w3.org/2000/svg" xmlns:xlink="http://www.w3.org/1999/xlink">
    <title>-mockplus-</title>
    <g id="页面-1" stroke="none" stroke-width="1" fill="none" fill-rule="evenodd">
        <g id="拍摄后出现重拍+选背景icon" transform="translate(-1658.000000, -936.000000)">
            <g id="胶卷" transform="translate(1658.000000, 936.000000)">
                <rect id="矩形备份-4" fill-opacity="0.99" fill="#FFFFFF" opacity="0.897284226" x="0" y="0" width="94" height="94" rx="47"></rect>
                <text id="胶卷图库" font-family="PingFangSC-Regular, PingFang SC" font-size="14" font-weight="normal" fill="#89BA43">
                    <tspan x="19" y="72">胶卷图库</tspan>
                </text>
                <g id="返回备份-2" transform="translate(47.000000, 83.000000) rotate(90.000000) translate(-47.000000, -83.000000) translate(41.000000, 77.000000)">
                    <rect id="矩形" fill="#D8D8D8" opacity="0" x="0" y="0" width="12" height="12"></rect>
                    <path d="M8.29303499,12 C8.11200268,12 7.93094503,11.9299149 7.79282014,11.7892803 L2.60720634,6.50944256 C2.33093122,6.22863775 2.33093122,5.7725944 2.60720634,5.49129929 L7.79282016,0.210971329 C8.06909527,-0.0703237762 8.51651854,-0.0703237762 8.79279366,0.210971329 C9.06906878,0.491776144 9.06906878,0.947819496 8.79279366,1.2291146 L4.1073947,6.0001129 L8.79279365,10.7706467 C9.06906876,11.0519418 9.06906876,11.5074949 8.79279365,11.78879 C8.65512496,11.9299149 8.4740673,12 8.29303499,12 Z" id="路径" fill="#89BA43" fill-rule="nonzero"></path>
                </g>
                <g id="编组-29" transform="translate(29.000000, 15.000000)" fill="#89BA43" fill-rule="nonzero">
                    <path d="M5.60747661,0 L30.3925233,0 C31.8797186,0 33.3060023,0.592632208 34.3576081,1.64752435 C35.409214,2.70241649 36,4.13315727 36,5.62500004 L36,30.375 C36,31.8668427 35.409214,33.2975835 34.3576081,34.3524757 C33.3060023,35.4073678 31.8797186,36 30.3925233,36 L5.60747661,36 C4.12028134,36 2.69399771,35.4073678 1.64239185,34.3524756 C0.590785993,33.2975835 0,31.8668427 0,30.375 L0,5.62500004 C0,4.13315728 0.590785993,2.70241651 1.64239185,1.64752437 C2.69399771,0.592632233 4.12028134,0 5.60747661,0 Z M5.38317757,2.3625 C3.52502327,2.3625 2.01869159,3.87353896 2.01869159,5.73749999 L2.01869159,30.4874999 C2.01869159,32.3514609 3.52502327,33.8625 5.38317757,33.8625 L30.4769399,33.8625 C32.3350942,33.8625 33.8414259,32.3514609 33.8414259,30.4874999 L33.8414259,5.73749999 C33.8414259,3.87353896 32.3350942,2.3625 30.4769399,2.3625 L5.38317757,2.3625 Z" id="形状备份"></path>
                    <g id="编组-27备份-2" transform="translate(6.000000, 2.400000)">
                        <path d="M24,1.05000002 L24,3.14999998 C24,3.84999999 23.6296296,4.2 22.8888889,4.2 L22.8888889,4.2 C22.1481482,4.2 21.7777778,3.84999999 21.7777778,3.14999998 L21.7777778,1.05000002 C21.7777778,0.350000005 22.1481482,0 22.8888889,0 L22.8888889,0 C23.6296297,0 24,0.350000005 24,1.05000002 Z" id="路径"></path>
                        <path d="M18.5555556,1.05000002 L18.5555556,3.14999998 C18.5555556,3.84999999 18.1851852,4.2 17.4444444,4.2 L17.4444444,4.2 C16.7037037,4.2 16.3333333,3.84999999 16.3333333,3.14999998 L16.3333333,1.05000002 C16.3333333,0.350000005 16.7037037,0 17.4444444,0 L17.4444444,0 C18.1851852,0 18.5555556,0.350000005 18.5555556,1.05000002 Z" id="路径"></path>
                        <path d="M13.1111111,1.05000002 L13.1111111,3.14999998 C13.1111111,3.84999999 12.7407407,4.2 12,4.2 L12,4.2 C11.2592592,4.2 10.8888889,3.84999999 10.8888889,3.14999998 L10.8888889,1.05000002 C10.8888889,0.350000005 11.2592593,0 12,0 L12,0 C12.7407407,0 13.1111111,0.350000005 13.1111111,1.05000002 Z" id="路径"></path>
                        <path d="M7.66666668,1.05000002 L7.66666668,3.14999998 C7.66666668,3.84999999 7.29629633,4.2 6.55555562,4.2 L6.55555562,4.2 C5.81481486,4.2 5.44444448,3.84999999 5.44444448,3.14999998 L5.44444448,1.05000002 C5.44444448,0.350000005 5.81481486,0 6.55555562,0 L6.55555562,0 C7.29629637,0 7.66666668,0.350000005 7.66666668,1.05000002 Z" id="路径"></path>
                        <path d="M2.22222227,1.05000002 L2.22222227,3.14999998 C2.22222227,3.84999999 1.85185189,4.2 1.11111113,4.2 L1.11111113,4.2 C0.370370378,4.2 0,3.84999999 0,3.14999998 L0,1.05000002 C0,0.350000005 0.370370378,0 1.11111113,0 L1.11111113,0 C1.85185189,0 2.22222227,0.350000005 2.22222227,1.05000002 Z" id="路径"></path>
                    </g>
                    <g id="编组-27备份-3" transform="translate(6.000000, 30.000000)">
                        <path d="M24,1.05000002 L24,3.14999998 C24,3.84999999 23.6296296,4.2 22.8888889,4.2 L22.8888889,4.2 C22.1481482,4.2 21.7777778,3.84999999 21.7777778,3.14999998 L21.7777778,1.05000002 C21.7777778,0.350000005 22.1481482,0 22.8888889,0 L22.8888889,0 C23.6296297,0 24,0.350000005 24,1.05000002 Z" id="路径"></path>
                        <path d="M18.5555556,1.05000002 L18.5555556,3.14999998 C18.5555556,3.84999999 18.1851852,4.2 17.4444444,4.2 L17.4444444,4.2 C16.7037037,4.2 16.3333333,3.84999999 16.3333333,3.14999998 L16.3333333,1.05000002 C16.3333333,0.350000005 16.7037037,0 17.4444444,0 L17.4444444,0 C18.1851852,0 18.5555556,0.350000005 18.5555556,1.05000002 Z" id="路径"></path>
                        <path d="M13.1111111,1.05000002 L13.1111111,3.14999998 C13.1111111,3.84999999 12.7407407,4.2 12,4.2 L12,4.2 C11.2592592,4.2 10.8888889,3.84999999 10.8888889,3.14999998 L10.8888889,1.05000002 C10.8888889,0.350000005 11.2592593,0 12,0 L12,0 C12.7407407,0 13.1111111,0.350000005 13.1111111,1.05000002 Z" id="路径"></path>
                        <path d="M7.66666668,1.05000002 L7.66666668,3.14999998 C7.66666668,3.84999999 7.29629633,4.2 6.55555562,4.2 L6.55555562,4.2 C5.81481486,4.2 5.44444448,3.84999999 5.44444448,3.14999998 L5.44444448,1.05000002 C5.44444448,0.350000005 5.81481486,0 6.55555562,0 L6.55555562,0 C7.29629637,0 7.66666668,0.350000005 7.66666668,1.05000002 Z" id="路径"></path>
                        <path d="M2.22222227,1.05000002 L2.22222227,3.14999998 C2.22222227,3.84999999 1.85185189,4.2 1.11111113,4.2 L1.11111113,4.2 C0.370370378,4.2 0,3.84999999 0,3.14999998 L0,1.05000002 C0,0.350000005 0.370370378,0 1.11111113,0 L1.11111113,0 C1.85185189,0 2.22222227,0.350000005 2.22222227,1.05000002 Z" id="路径"></path>
                    </g>
                    <polygon id="路径备份-3" points="0 9 36 9 36 6.6 0 6.6"></polygon>
                    <polygon id="路径备份-4" points="0 30 36 30 36 27.6 0 27.6"></polygon>
                    <path d="M19.45,22.3333334 C15.85355,22.3333334 9,23.4 9,23.4 L13.95,15.9333333 L17.8,19.1333333 L22.75,13.8 L28.8,22.8666667 C28.8,22.8666667 23.04645,22.3333334 19.45,22.3333334 L19.45,22.3333334 Z M9.3,15 C8.47157288,15 7.8,14.3284271 7.8,13.5 C7.8,12.6715729 8.47157288,12 9.3,12 C10.1284271,12 10.8,12.6715729 10.8,13.5 C10.8,13.8978247 10.6419647,14.2793556 10.3606602,14.5606602 C10.0793556,14.8419647 9.69782473,15 9.3,15 L9.3,15 Z" id="形状备份-2"></path>
                </g>
            </g>
        </g>
    </g>
</svg>