<?xml version="1.0" encoding="UTF-8"?>
<svg width="136px" height="122px" viewBox="0 0 136 122" version="1.1" xmlns="http://www.w3.org/2000/svg" xmlns:xlink="http://www.w3.org/1999/xlink">
    <title>胶卷2备份</title>
    <g id="页面-1" stroke="none" stroke-width="1" fill="none" fill-rule="evenodd" opacity="0.502069382">
        <g id="C端登录" transform="translate(-994.000000, -359.000000)" fill="#000000">
            <path d="M1130,359 L1130,481 L994,481 L994,359 L1130,359 Z M1015.2,463 L1011.2,463 C1010.09543,463 1009.2,463.895431 1009.2,465 L1009.2,465 L1009.2,469 C1009.2,470.104569 1010.09543,471 1011.2,471 L1011.2,471 L1015.2,471 C1016.30457,471 1017.2,470.104569 1017.2,469 L1017.2,469 L1017.2,465 C1017.2,463.895431 1016.30457,463 1015.2,463 L1015.2,463 Z M1064,463 L1060,463 C1058.89543,463 1058,463.895431 1058,465 L1058,465 L1058,469 C1058,470.104569 1058.89543,471 1060,471 L1060,471 L1064,471 C1065.10457,471 1066,470.104569 1066,469 L1066,469 L1066,465 C1066,463.895431 1065.10457,463 1064,463 L1064,463 Z M1112.8,463 L1108.8,463 C1107.69543,463 1106.8,463.895431 1106.8,465 L1106.8,465 L1106.8,469 C1106.8,470.104569 1107.69543,471 1108.8,471 L1108.8,471 L1112.8,471 C1113.90457,471 1114.8,470.104569 1114.8,469 L1114.8,469 L1114.8,465 C1114.8,463.895431 1113.90457,463 1112.8,463 L1112.8,463 Z M1039.6,463 L1035.6,463 C1034.49543,463 1033.6,463.895431 1033.6,465 L1033.6,465 L1033.6,469 C1033.6,470.104569 1034.49543,471 1035.6,471 L1035.6,471 L1039.6,471 C1040.70457,471 1041.6,470.104569 1041.6,469 L1041.6,469 L1041.6,465 C1041.6,463.895431 1040.70457,463 1039.6,463 L1039.6,463 Z M1088.4,463 L1084.4,463 C1083.29543,463 1082.4,463.895431 1082.4,465 L1082.4,465 L1082.4,469 C1082.4,470.104569 1083.29543,471 1084.4,471 L1084.4,471 L1088.4,471 C1089.50457,471 1090.4,470.104569 1090.4,469 L1090.4,469 L1090.4,465 C1090.4,463.895431 1089.50457,463 1088.4,463 L1088.4,463 Z M1027.4,463 L1023.4,463 C1022.29543,463 1021.4,463.895431 1021.4,465 L1021.4,465 L1021.4,469 C1021.4,470.104569 1022.29543,471 1023.4,471 L1023.4,471 L1027.4,471 C1028.50457,471 1029.4,470.104569 1029.4,469 L1029.4,469 L1029.4,465 C1029.4,463.895431 1028.50457,463 1027.4,463 L1027.4,463 Z M1076.2,463 L1072.2,463 C1071.09543,463 1070.2,463.895431 1070.2,465 L1070.2,465 L1070.2,469 C1070.2,470.104569 1071.09543,471 1072.2,471 L1072.2,471 L1076.2,471 C1077.30457,471 1078.2,470.104569 1078.2,469 L1078.2,469 L1078.2,465 C1078.2,463.895431 1077.30457,463 1076.2,463 L1076.2,463 Z M1125,463 L1121,463 C1119.89543,463 1119,463.895431 1119,465 L1119,465 L1119,469 C1119,470.104569 1119.89543,471 1121,471 L1121,471 L1125,471 C1126.10457,471 1127,470.104569 1127,469 L1127,469 L1127,465 C1127,463.895431 1126.10457,463 1125,463 L1125,463 Z M1051.8,463 L1047.8,463 C1046.69543,463 1045.8,463.895431 1045.8,465 L1045.8,465 L1045.8,469 C1045.8,470.104569 1046.69543,471 1047.8,471 L1047.8,471 L1051.8,471 C1052.90457,471 1053.8,470.104569 1053.8,469 L1053.8,469 L1053.8,465 C1053.8,463.895431 1052.90457,463 1051.8,463 L1051.8,463 Z M1100.6,463 L1096.6,463 C1095.49543,463 1094.6,463.895431 1094.6,465 L1094.6,465 L1094.6,469 C1094.6,470.104569 1095.49543,471 1096.6,471 L1096.6,471 L1100.6,471 C1101.70457,471 1102.6,470.104569 1102.6,469 L1102.6,469 L1102.6,465 C1102.6,463.895431 1101.70457,463 1100.6,463 L1100.6,463 Z M1003,463 L999,463 C997.895431,463 997,463.895431 997,465 L997,465 L997,469 C997,470.104569 997.895431,471 999,471 L999,471 L1003,471 C1004.10457,471 1005,470.104569 1005,469 L1005,469 L1005,465 C1005,463.895431 1004.10457,463 1003,463 L1003,463 Z M1015.2,369 L1011.2,369 C1010.09543,369 1009.2,369.895431 1009.2,371 L1009.2,371 L1009.2,375 C1009.2,376.104569 1010.09543,377 1011.2,377 L1011.2,377 L1015.2,377 C1016.30457,377 1017.2,376.104569 1017.2,375 L1017.2,375 L1017.2,371 C1017.2,369.895431 1016.30457,369 1015.2,369 L1015.2,369 Z M1064,369 L1060,369 C1058.89543,369 1058,369.895431 1058,371 L1058,371 L1058,375 C1058,376.104569 1058.89543,377 1060,377 L1060,377 L1064,377 C1065.10457,377 1066,376.104569 1066,375 L1066,375 L1066,371 C1066,369.895431 1065.10457,369 1064,369 L1064,369 Z M1112.8,369 L1108.8,369 C1107.69543,369 1106.8,369.895431 1106.8,371 L1106.8,371 L1106.8,375 C1106.8,376.104569 1107.69543,377 1108.8,377 L1108.8,377 L1112.8,377 C1113.90457,377 1114.8,376.104569 1114.8,375 L1114.8,375 L1114.8,371 C1114.8,369.895431 1113.90457,369 1112.8,369 L1112.8,369 Z M1039.6,369 L1035.6,369 C1034.49543,369 1033.6,369.895431 1033.6,371 L1033.6,371 L1033.6,375 C1033.6,376.104569 1034.49543,377 1035.6,377 L1035.6,377 L1039.6,377 C1040.70457,377 1041.6,376.104569 1041.6,375 L1041.6,375 L1041.6,371 C1041.6,369.895431 1040.70457,369 1039.6,369 L1039.6,369 Z M1088.4,369 L1084.4,369 C1083.29543,369 1082.4,369.895431 1082.4,371 L1082.4,371 L1082.4,375 C1082.4,376.104569 1083.29543,377 1084.4,377 L1084.4,377 L1088.4,377 C1089.50457,377 1090.4,376.104569 1090.4,375 L1090.4,375 L1090.4,371 C1090.4,369.895431 1089.50457,369 1088.4,369 L1088.4,369 Z M1027.4,369 L1023.4,369 C1022.29543,369 1021.4,369.895431 1021.4,371 L1021.4,371 L1021.4,375 C1021.4,376.104569 1022.29543,377 1023.4,377 L1023.4,377 L1027.4,377 C1028.50457,377 1029.4,376.104569 1029.4,375 L1029.4,375 L1029.4,371 C1029.4,369.895431 1028.50457,369 1027.4,369 L1027.4,369 Z M1076.2,369 L1072.2,369 C1071.09543,369 1070.2,369.895431 1070.2,371 L1070.2,371 L1070.2,375 C1070.2,376.104569 1071.09543,377 1072.2,377 L1072.2,377 L1076.2,377 C1077.30457,377 1078.2,376.104569 1078.2,375 L1078.2,375 L1078.2,371 C1078.2,369.895431 1077.30457,369 1076.2,369 L1076.2,369 Z M1125,369 L1121,369 C1119.89543,369 1119,369.895431 1119,371 L1119,371 L1119,375 C1119,376.104569 1119.89543,377 1121,377 L1121,377 L1125,377 C1126.10457,377 1127,376.104569 1127,375 L1127,375 L1127,371 C1127,369.895431 1126.10457,369 1125,369 L1125,369 Z M1051.8,369 L1047.8,369 C1046.69543,369 1045.8,369.895431 1045.8,371 L1045.8,371 L1045.8,375 C1045.8,376.104569 1046.69543,377 1047.8,377 L1047.8,377 L1051.8,377 C1052.90457,377 1053.8,376.104569 1053.8,375 L1053.8,375 L1053.8,371 C1053.8,369.895431 1052.90457,369 1051.8,369 L1051.8,369 Z M1100.6,369 L1096.6,369 C1095.49543,369 1094.6,369.895431 1094.6,371 L1094.6,371 L1094.6,375 C1094.6,376.104569 1095.49543,377 1096.6,377 L1096.6,377 L1100.6,377 C1101.70457,377 1102.6,376.104569 1102.6,375 L1102.6,375 L1102.6,371 C1102.6,369.895431 1101.70457,369 1100.6,369 L1100.6,369 Z M1003,369 L999,369 C997.895431,369 997,369.895431 997,371 L997,371 L997,375 C997,376.104569 997.895431,377 999,377 L999,377 L1003,377 C1004.10457,377 1005,376.104569 1005,375 L1005,375 L1005,371 C1005,369.895431 1004.10457,369 1003,369 L1003,369 Z" id="胶卷2备份"></path>
        </g>
    </g>
</svg>