<?xml version="1.0" encoding="UTF-8"?>
<svg width="94px" height="94px" viewBox="0 0 94 94" version="1.1" xmlns="http://www.w3.org/2000/svg" xmlns:xlink="http://www.w3.org/1999/xlink">
    <title>-mockplus-</title>
    <g id="页面-1" stroke="none" stroke-width="1" fill="none" fill-rule="evenodd">
        <g id="拍摄后出现重拍+选背景icon" transform="translate(-1544.000000, -936.000000)">
            <g id="手气" transform="translate(1544.000000, 936.000000)">
                <rect id="矩形备份-3" fill-opacity="0.99" fill="#FFFFFF" opacity="0.897284226" x="0" y="0" width="94" height="94" rx="47"></rect>
                <text id="手气不错" font-family="PingFangSC-Regular, PingFang SC" font-size="14" font-weight="normal" fill="#89BA43">
                    <tspan x="19" y="72">手气不错</tspan>
                </text>
                <g id="编组-30" transform="translate(26.000000, 13.000000)" fill="#89BA43" fill-rule="nonzero">
                    <path d="M16.4659782,40 L4.11314145,40 C1.84644284,40 0,38.1146511 0,35.8001913 L0,23.1825054 C0,20.8680456 1.84644284,18.9826967 4.11314145,18.9826967 L16.470449,18.9826967 C18.7371476,18.9826967 20.5835905,20.8680456 20.5835905,23.1825054 L20.5835905,35.8001913 C20.5835905,38.1146511 18.7371476,40 16.4659782,40 Z M4.43002432,20.8209165 C2.97942688,20.8209165 1.80028628,22.0249025 1.80028628,23.5060652 L1.80028628,35.4766315 C1.80028628,36.9577942 2.97942688,38.1617802 4.43002432,38.1617802 L16.1535661,38.1617802 C17.6041636,38.1617802 18.7833042,36.9577942 18.7833042,35.4766315 L18.7833042,23.5060652 C18.7833042,22.0249025 17.6041636,20.8209165 16.1535661,20.8209165 L4.43002432,20.8209165 Z" id="形状"></path>
                    <g id="编组-28" transform="translate(29.195292, 14.008434) rotate(-26.000000) translate(-29.195292, -14.008434) translate(18.903497, 3.499783)">
                        <path d="M16.4659782,21.0173033 L4.11314145,21.0173033 C1.84644284,21.0173033 0,19.1319544 0,16.8174946 L0,4.19980865 C0,1.88534888 1.84644284,9.09921879e-13 4.11314145,9.09921879e-13 L16.470449,9.09921879e-13 C18.7371476,9.09921879e-13 20.5835905,1.88534888 20.5835905,4.19980865 L20.5835905,16.8174946 C20.5835905,19.1319544 18.7371476,21.0173033 16.4659782,21.0173033 Z M4.43002432,1.83821976 C2.97942688,1.83821976 1.80028628,3.04220581 1.80028628,4.5233685 L1.80028628,16.4939348 C1.80028628,17.9750975 2.97942688,19.1790835 4.43002432,19.1790835 L16.1535661,19.1790835 C17.6041636,19.1790835 18.7833042,17.9750975 18.7833042,16.4939348 L18.7833042,4.5233685 C18.7833042,3.04220581 17.6041636,1.83821976 16.1535661,1.83821976 L4.43002432,1.83821976 Z" id="形状备份-3"></path>
                        <path d="M10.0615386,12.966188 C8.88342391,12.966188 7.92727284,11.9950996 7.92727284,10.79858 C7.92727284,9.6020604 8.88342391,8.63097203 10.0615386,8.63097203 C11.2396533,8.63097203 12.1958044,9.6020604 12.1958044,10.79858 C12.1958044,11.9950996 11.2396533,12.966188 10.0615386,12.966188 L10.0615386,12.966188 Z M10.0615386,9.86960516 C9.55846168,9.86960516 9.14685328,10.2876438 9.14685328,10.79858 C9.14685328,11.3095162 9.55846168,11.7275548 10.0615386,11.7275548 C10.5646155,11.7275548 10.9762239,11.3095162 10.9762239,10.79858 C10.9762239,10.2876438 10.5646155,9.86960516 10.0615386,9.86960516 L10.0615386,9.86960516 Z" id="形状备份-4"></path>
                        <path d="M6.4027973,8.01165547 C5.22468259,8.01165547 4.26853153,7.0405671 4.26853153,5.8440475 C4.26853153,4.6475279 5.22468259,3.67643953 6.4027973,3.67643953 C7.580912,3.67643953 8.53706306,4.6475279 8.53706306,5.8440475 C8.53706306,7.0405671 7.57664347,8.01165547 6.4027973,8.01165547 Z M6.4027973,4.91507265 C5.89972037,4.91507265 5.48811197,5.33311133 5.48811197,5.8440475 C5.48811197,6.35498366 5.89972037,6.77302234 6.4027973,6.77302234 C6.90587423,6.77302234 7.31748262,6.35498366 7.31748262,5.8440475 C7.31748262,5.33311133 6.90587423,4.91507265 6.4027973,4.91507265 Z" id="形状备份-5"></path>
                        <path d="M14.3300701,17.3014039 C13.1519554,17.3014039 12.1958044,16.3303155 12.1958044,15.1337959 C12.1958044,13.9372763 13.1519554,12.966188 14.3300701,12.966188 C15.5081848,12.966188 16.4643359,13.9372763 16.4643359,15.1337959 C16.4643359,16.3303155 15.5081848,17.3014039 14.3300701,17.3014039 Z M14.3300701,14.2048211 C13.8269932,14.2048211 13.4153848,14.6228598 13.4153848,15.1337959 C13.4153848,15.6447321 13.8269932,16.0627708 14.3300701,16.0627708 C14.8331471,16.0627708 15.2447555,15.6447321 15.2447555,15.1337959 C15.2447555,14.6228598 14.8331471,14.2048211 14.3300701,14.2048211 Z" id="形状备份-8"></path>
                    </g>
                    <path d="M10.0615386,31.9488847 C8.88342391,31.9488847 7.92727284,30.9777963 7.92727284,29.7812767 C7.92727284,28.5847571 8.88342391,27.6136687 10.0615386,27.6136687 C11.2396533,27.6136687 12.1958044,28.5847571 12.1958044,29.7812767 C12.1958044,30.9777963 11.2396533,31.9488847 10.0615386,31.9488847 L10.0615386,31.9488847 Z M10.0615386,28.8523019 C9.55846168,28.8523019 9.14685328,29.2703405 9.14685328,29.7812767 C9.14685328,30.2922129 9.55846168,30.7102516 10.0615386,30.7102516 C10.5646155,30.7102516 10.9762239,30.2922129 10.9762239,29.7812767 C10.9762239,29.2703405 10.5646155,28.8523019 10.0615386,28.8523019 L10.0615386,28.8523019 Z" id="形状"></path>
                    <path d="M6.4027973,26.9943522 C5.22468259,26.9943522 4.26853153,26.0232638 4.26853153,24.8267442 C4.26853153,23.6302246 5.22468259,22.6591362 6.4027973,22.6591362 C7.580912,22.6591362 8.53706306,23.6302246 8.53706306,24.8267442 C8.53706306,26.0232638 7.57664347,26.9943522 6.4027973,26.9943522 Z M6.4027973,23.8977694 C5.89972037,23.8977694 5.48811197,24.315808 5.48811197,24.8267442 C5.48811197,25.3376804 5.89972037,25.755719 6.4027973,25.755719 C6.90587423,25.755719 7.31748262,25.3376804 7.31748262,24.8267442 C7.31748262,24.315808 6.90587423,23.8977694 6.4027973,23.8977694 Z" id="形状"></path>
                    <path d="M14.3300701,26.9943522 C13.1519554,26.9943522 12.1958044,26.0232638 12.1958044,24.8267442 C12.1958044,23.6302246 13.1519554,22.6591362 14.3300701,22.6591362 C15.5081848,22.6591362 16.4643359,23.6302246 16.4643359,24.8267442 C16.4643359,26.0232638 15.5081848,26.9943522 14.3300701,26.9943522 Z M14.3300701,23.8977694 C13.8269932,23.8977694 13.4153848,24.315808 13.4153848,24.8267442 C13.4153848,25.3376804 13.8269932,25.755719 14.3300701,25.755719 C14.8331471,25.755719 15.2447555,25.3376804 15.2447555,24.8267442 C15.2447555,24.315808 14.8331471,23.8977694 14.3300701,23.8977694 Z" id="形状"></path>
                    <path d="M6.4027973,36.2841006 C5.22468259,36.2841006 4.26853153,35.3130122 4.26853153,34.1164926 C4.26853153,32.919973 5.22468259,31.9488847 6.4027973,31.9488847 C7.580912,31.9488847 8.53706306,32.919973 8.53706306,34.1164926 C8.53706306,35.3130122 7.57664347,36.2841006 6.4027973,36.2841006 Z M6.4027973,33.1875178 C5.89972037,33.1875178 5.48811197,33.6055565 5.48811197,34.1164926 C5.48811197,34.6274288 5.89972037,35.0454675 6.4027973,35.0454675 C6.90587423,35.0454675 7.31748262,34.6274288 7.31748262,34.1164926 C7.31748262,33.6055565 6.90587423,33.1875178 6.4027973,33.1875178 Z" id="形状"></path>
                    <path d="M14.3300701,36.2841006 C13.1519554,36.2841006 12.1958044,35.3130122 12.1958044,34.1164926 C12.1958044,32.919973 13.1519554,31.9488847 14.3300701,31.9488847 C15.5081848,31.9488847 16.4643359,32.919973 16.4643359,34.1164926 C16.4643359,35.3130122 15.5081848,36.2841006 14.3300701,36.2841006 Z M14.3300701,33.1875178 C13.8269932,33.1875178 13.4153848,33.6055565 13.4153848,34.1164926 C13.4153848,34.6274288 13.8269932,35.0454675 14.3300701,35.0454675 C14.8331471,35.0454675 15.2447555,34.6274288 15.2447555,34.1164926 C15.2447555,33.6055565 14.8331471,33.1875178 14.3300701,33.1875178 Z" id="形状"></path>
                </g>
            </g>
        </g>
    </g>
</svg>