<?xml version="1.0" encoding="UTF-8"?>
<svg width="94px" height="94px" viewBox="0 0 94 94" version="1.1" xmlns="http://www.w3.org/2000/svg" xmlns:xlink="http://www.w3.org/1999/xlink">
    <title>-mockplus-</title>
    <g id="页面-1" stroke="none" stroke-width="1" fill="none" fill-rule="evenodd">
        <g id="胶卷" transform="translate(-1772.000000, -166.000000)">
            <g id="重新拍照" transform="translate(1772.000000, 166.000000)">
                <g id="编组-2备份">
                    <rect id="矩形备份-5" fill-opacity="0.99" fill="#FFFFFF" x="0" y="0" width="94" height="94" rx="47"></rect>
                    <text id="重新拍照" font-family="PingFangSC-Regular, PingFang SC" font-size="13.4285714" font-weight="normal" fill="#89BA43">
                        <tspan x="20" y="75">重新拍照</tspan>
                    </text>
                </g>
                <g id="编组-36备份" transform="translate(30.000000, 22.000000)" fill-rule="nonzero">
                    <path d="M20.5789474,16.7647008 C20.5789474,18.7058767 18.968421,20.2941115 17,20.2941115 C15.031579,20.2941115 13.4210526,18.7058767 13.4210526,16.7647008 C13.4210526,14.823525 15.031579,13.2352901 17,13.2352901 C18.968421,13.2352901 20.5789474,14.8235249 20.5789474,16.7647008 Z M34,13.2352901 L34,22.0588169 C34,26.4352862 30.3852631,30 25.9473684,30 L8.05263159,30 C3.61473686,30 0,26.4352862 0,22.0588169 L0,13.2352901 C0,9.01764435 3.34631581,5.55882185 7.56947369,5.31176312 L9.82421053,1.95882294 C10.6652632,0.741176247 12.0431579,0 13.5463158,0 L20.4536842,0 C21.9568421,0 23.3347368,0.741176247 24.1757895,1.95882294 L26.4305263,5.31176312 C30.6536842,5.55882185 34,9.01764435 34,13.2352901 Z M24.1578948,16.7647008 C24.1578948,12.864702 20.9547369,9.70587944 17,9.70587944 C13.0452631,9.70587944 9.84210524,12.864702 9.84210524,16.7647008 C9.84210524,20.6646997 13.0452631,23.8235222 17,23.8235222 C20.9547369,23.8235222 24.1578948,20.6646997 24.1578948,16.7647008 Z M29.5263158,11.4705848 C29.5263158,10.4999968 28.7210527,9.70587944 27.7368421,9.70587944 C26.7526316,9.70587944 25.9473684,10.4999968 25.9473684,11.4705848 C25.9473684,12.4411728 26.7526316,13.2352901 27.7368421,13.2352901 C28.7210527,13.2352901 29.5263158,12.4411727 29.5263158,11.4705848 Z" id="形状备份-6" fill="#89BA43"></path>
                    <path d="M33.9713684,12.5699962 L16.2967368,29.9999955 L8.05263159,29.9999955 C6.8132322,30.0013008 5.59047878,29.7185713 4.48084209,29.1741089 L11.9697895,21.788817 C14.7651933,24.5455292 19.2974383,24.5455291 22.092842,21.7888169 C24.8882458,19.0321047 24.8882458,14.562591 22.0928421,11.8058788 L28.3309474,5.65235126 C31.4629616,6.61207318 33.6931908,9.34731818 33.9713684,12.5699962 L33.9713684,12.5699962 Z M20.5789474,16.7647008 C20.5789474,18.7058767 18.968421,20.2941115 17,20.2941115 C16.0336842,20.2941115 15.1514737,19.9111705 14.5054737,19.2882295 L19.5607368,14.3047016 C20.1906316,14.9399955 20.5789474,15.8099952 20.5789474,16.7647008 Z M27.7368421,9.70587944 C26.7526316,9.70587944 25.9473684,10.4999968 25.9473684,11.4705848 C25.9473684,12.4411728 26.7526316,13.2352901 27.7368421,13.2352901 C28.7210527,13.2352901 29.5263158,12.4411727 29.5263158,11.4705848 C29.5263158,10.4999969 28.7210527,9.70587944 27.7368421,9.70587944 Z" id="形状备份-7" fill="#91C842"></path>
                    <path d="M24.1757895,1.95882294 L26.4305263,5.31176312 C27.0890526,5.35058665 27.7261053,5.4670572 28.3309474,5.65235126 L22.0946316,11.8058788 C20.2863224,10.0225986 17.6506543,9.32614836 15.180458,9.9788742 C12.7102617,10.6316 10.7808187,12.5343373 10.1189316,14.9703434 C9.45704452,17.4063494 10.1632697,20.0055368 11.971579,21.788817 L4.48084209,29.1741089 C1.73926839,27.8328296 0.00370500669,25.0768654 0,22.0588169 L0,21.1146995 L21.3233684,0.0847058568 C22.4868655,0.315731382 23.5114734,0.988926211 24.1757895,1.95882294 Z M17,13.2352901 C18.0021053,13.2352901 18.9093684,13.6464665 19.5589474,14.3047016 L14.5054737,19.2899942 C13.8125686,18.6274926 13.4213454,17.7164504 13.4210526,16.7647008 C13.4210526,14.823525 15.031579,13.2352901 17,13.2352901 L17,13.2352901 Z" id="形状备份-9" fill="#9FDC48"></path>
                    <path d="M20.4536842,0 C20.7489474,0 21.0406316,0.0282352994 21.3233684,0.0847058568 L0,21.1146995 L0,13.2352901 C0,9.01764435 3.34631581,5.55882185 7.56947369,5.31176312 L9.82421053,1.95882294 C10.6652632,0.741176247 12.0431579,0 13.5463158,0 L20.4536842,0 Z" id="路径备份-5" fill="#A7E84C"></path>
                </g>
            </g>
        </g>
    </g>
</svg>