<?xml version="1.0" encoding="UTF-8"?>
<svg width="94px" height="94px" viewBox="0 0 94 94" version="1.1" xmlns="http://www.w3.org/2000/svg" xmlns:xlink="http://www.w3.org/1999/xlink">
    <title>-mockplus-</title>
    <g id="页面-1" stroke="none" stroke-width="1" fill="none" fill-rule="evenodd">
        <g id="胶卷" transform="translate(-1772.000000, -52.000000)">
            <g id="保存分享" transform="translate(1772.000000, 52.000000)">
                <rect id="矩形备份-5" fill-opacity="0.99" fill="#FFFFFF" x="0" y="0" width="94" height="94" rx="47"></rect>
                <text font-family="PingFangSC-Regular, PingFang SC" font-size="13.4285714" font-weight="normal" fill="#89BA43">
                    <tspan x="20" y="75">保存分享</tspan>
                </text>
                <g id="编组" transform="translate(27.000000, 14.000000)" fill-rule="nonzero">
                    <path d="M9.92105263,17.2631579 C9.60526314,17.2631579 9.26315792,17.1052631 9.07894733,16.8157894 C8.78947364,16.3421052 8.8947368,15.7368421 9.36842103,15.4210526 L19,9.13157891 C19.4736842,8.84210522 20.0789474,8.94736838 20.3947369,9.42105261 C20.6842106,9.89473684 20.5789474,10.5 20.1052632,10.8157895 L10.4736842,17.0789474 C10.2894736,17.2105263 10.1052631,17.2631579 9.92105263,17.2631579 L9.92105263,17.2631579 Z M28.9736842,32.631579 C28.8157895,32.631579 28.6578947,32.6052632 28.5263158,32.5263158 L10.5,23.1578948 C9.99999995,22.8947369 9.81578947,22.2894737 10.0789474,21.8157895 C10.3421053,21.3157895 10.9473684,21.131579 11.4210526,21.3947368 L29.4210527,30.7368421 C29.9210527,31 30.1052632,31.6052632 29.8421053,32.0789474 C29.6842105,32.4210527 29.3157894,32.631579 28.9736842,32.631579 L28.9736842,32.631579 Z" id="形状" fill="#60832F"></path>
                    <path d="M6.2368421,26.2368421 C2.78947365,26.2368421 0,23.4473684 0,20 C0,16.5526316 2.7894737,13.7631579 6.2368421,13.7631579 C9.68421051,13.7631579 12.5,16.5526316 12.5,20 C12.5,23.4473684 9.68421051,26.2368421 6.2368421,26.2368421 Z M23.2631579,12.5 C19.8157895,12.5 17.0263158,9.7105263 17.0263158,6.2631579 C17.0263158,2.81578949 19.8157895,0 23.2631579,0 C26.7105263,0 29.5,2.7894737 29.5,6.2368421 C29.5,9.68421051 26.7105263,12.5 23.2631579,12.5 Z M33.7631579,40 C30.3157895,40 27.5263158,37.2105263 27.5263158,33.7631579 C27.5263158,30.3157895 30.3157895,27.5263158 33.7631579,27.5263158 C37.2105263,27.5263158 40,30.3157895 40,33.7631579 C40,37.2105263 37.2105263,40 33.7631579,40 Z" id="形状" fill="#89BA43"></path>
                </g>
            </g>
        </g>
    </g>
</svg>