<?xml version="1.0" encoding="UTF-8"?>
<svg width="36px" height="36px" viewBox="0 0 36 36" version="1.1" xmlns="http://www.w3.org/2000/svg" xmlns:xlink="http://www.w3.org/1999/xlink">
    <title>保存</title>
    <g id="页面-1" stroke="none" stroke-width="1" fill="none" fill-rule="evenodd">
        <g id="点手气，出现保存" transform="translate(-1679.000000, -96.000000)" fill="#FFFFFF" fill-rule="nonzero">
            <g id="保存" transform="translate(1679.000000, 96.000000)">
                <path d="M30.8564595,0 L5.14349849,0 C2.30284298,0 0,2.30284298 0,5.14349849 L0,30.8565015 C0,33.697157 2.30284298,36 5.14349849,36 L30.8565015,36 C33.697157,36 36,33.697157 36,30.8565015 L36,5.14349849 C36,2.30284298 33.697157,0 30.8564595,0 Z M25.6354654,2.65646165 L25.6354654,12.7742017 L10.37901,12.7742017 L10.37901,2.65646165 L25.6354654,2.65646165 Z M33.4306438,30.8634665 C33.4317752,32.2801649 32.2842348,33.4295095 30.8675364,33.4306423 L5.14945647,33.4306423 C4.46181334,33.4306423 3.81251945,33.1664353 3.32623084,32.6801467 C2.83994224,32.1938581 2.56935766,31.5510676 2.56935766,30.8634665 L2.56935766,5.14597399 C2.57191708,3.72264627 3.72612875,2.56998703 5.14945647,2.56935766 L7.72259032,2.56935766 L7.72259032,12.8613057 C7.72049244,14.2782558 8.86744545,15.4285654 10.2843956,15.4306633 L25.7200938,15.4306633 C27.1404845,15.4306633 28.2920529,14.2815705 28.2920529,12.8613057 L28.2920529,2.56935766 L30.8601099,2.56935766 C32.2812977,2.57086814 33.4321528,3.7241987 33.4306438,5.14538659 L33.4306438,30.8634665 Z" id="形状"></path>
                <path d="M20.5765954,10.3317238 C21.3101401,10.3317238 21.9048052,9.7370587 21.9048052,9.00351395 L21.9048052,6.43184862 C21.9048052,5.69830386 21.3101401,5.10363877 20.5765954,5.10363877 C19.8430506,5.10363877 19.2483855,5.69830386 19.2483855,6.43184862 L19.2483855,9.00351395 C19.2483855,9.7370587 19.8430506,10.3317238 20.5765954,10.3317238 Z" id="路径"></path>
            </g>
        </g>
    </g>
</svg>